HIERARCHY
ROOT hip
{
	OFFSET 0.000000 0.000000 0.000000 
	CHANNELS 6 Xposition Yposition Zposition Xrotation Zrotation Yrotation
	JOINT abdomen
	{
		OFFSET 0.000000 3.402643 0.000000 
		CHANNELS 3 Xrotation Zrotation Yrotation
		JOINT chest
		{
			OFFSET 0.000000 8.438565 -0.680529 
			CHANNELS 3 Xrotation Zrotation Yrotation
			JOINT neck
			{
				OFFSET 0.000000 10.207942 -0.272212 
				CHANNELS 3 Xrotation Zrotation Yrotation
				JOINT head
				{
					OFFSET 0.000000 3.130431 0.000000 
					CHANNELS 3 Xrotation Zrotation Yrotation
					End Site
					{
						OFFSET 0.000000 3.130435 0.000000 
					}
				}
			}
			JOINT lCollar
			{
				OFFSET 3.470700 6.669187 -0.816635 
				CHANNELS 3 Yrotation Zrotation Xrotation
				JOINT lShldr
				{
					OFFSET 3.198488 0.000000 0.000000 
					CHANNELS 3 Zrotation Yrotation Xrotation
					JOINT lForeArm
					{
						OFFSET 10.139888 0.000000 0.000000 
						CHANNELS 3 Yrotation Zrotation Xrotation
						JOINT lHand
						{
							OFFSET 8.370511 0.000000 0.000000 
							CHANNELS 3 Zrotation Yrotation Xrotation
							End Site
							{
								OFFSET 4.083176 0.000000 0.000000 
							}
						}
					}
				}
			}
			JOINT rCollar
			{
				OFFSET -3.470700 6.669187 -0.816635 
				CHANNELS 3 Yrotation Zrotation Xrotation
				JOINT rShldr
				{
					OFFSET -3.198488 0.000000 0.000000 
					CHANNELS 3 Zrotation Yrotation Xrotation
					JOINT rForeArm
					{
						OFFSET -10.139888 0.000000 0.000000 
						CHANNELS 3 Yrotation Zrotation Xrotation
						JOINT rHand
						{
							OFFSET -8.370511 0.000000 0.000000 
							CHANNELS 3 Zrotation Yrotation Xrotation
							End Site
							{
								OFFSET -4.083176 0.000000 0.000000 
							}
						}
					}
				}
			}
		}
	}
	JOINT lThigh
	{
		OFFSET 5.308129 -1.633274 1.361059 
		CHANNELS 3 Xrotation Zrotation Yrotation
		JOINT lShin
		{
			OFFSET -2.041588 -20.007561 0.000000 
			CHANNELS 3 Xrotation Zrotation Yrotation
			JOINT lFoot
			{
				OFFSET 0.000000 -19.190928 -1.224953 
				CHANNELS 3 Xrotation Yrotation Zrotation
				End Site
				{
					OFFSET 0.000000 -2.449906 4.627600 
				}
			}
		}
	}
	JOINT rThigh
	{
		OFFSET -5.308129 -1.633274 1.361059 
		CHANNELS 3 Xrotation Zrotation Yrotation
		JOINT rShin
		{
			OFFSET 2.041588 -20.007561 0.000000 
			CHANNELS 3 Xrotation Zrotation Yrotation
			JOINT rFoot
			{
				OFFSET 0.000000 -19.190928 -1.224953 
				CHANNELS 3 Xrotation Yrotation Zrotation
				End Site
				{
					OFFSET 0.000000 -2.449906 4.627600 
				}
			}
		}
	}
}
MOTION
Frames: 20
Frame Time: 0.033333
-17.796616 49.994946 -19.990057 -5.294363 -2.057299 19.876583 0.000000 0.000000 0.000000 5.554754 -0.995400 -2.139028 5.982091 -1.946954 -7.309074 -10.467208 10.359298 -9.093310 -4.225374 -4.732014 5.489410 -71.599121 30.367662 -16.237617 -41.149975 5.600379 31.104170 -21.297104 18.349991 -6.582116 -0.639511 2.940186 5.563640 66.637337 3.949104 19.277607 55.584698 4.340977 15.255259 0.943975 -8.952910 -3.639526 1.405247 4.608681 5.186272 21.478291 -1.689525 29.620636 -16.597834 1.205589 -8.251088 -19.574871 -7.351428 -4.912484 22.806623 4.264406 -17.290079 4.682183 -0.042038 -0.569394 
-17.965109 49.970978 -19.601202 -4.663893 -2.149005 19.887409 0.000000 0.000000 0.000000 4.732056 -0.819931 -1.748287 5.157840 -2.371884 -7.545903 -11.004067 10.734778 -10.059174 -3.402606 -4.899693 4.782746 -71.973335 24.713268 -19.726189 -40.864773 7.020444 30.452122 -17.817095 19.045336 -6.225230 0.627382 2.904707 4.819731 66.706589 1.311977 17.247194 56.543526 3.753841 16.567617 3.576827 -10.670519 -3.844807 1.238444 4.876935 5.241230 21.432184 -1.701187 29.494457 -16.698143 1.286340 -8.749726 -18.900702 -7.429368 -4.043932 19.632084 3.863496 -16.310013 3.626243 -0.047267 -0.914122 
-18.134380 49.964375 -19.184273 -3.989090 -1.993992 19.797482 0.000000 0.000000 0.000000 4.110170 -0.810339 -1.298975 4.602470 -2.815793 -7.763675 -11.480426 11.038221 -11.015726 -2.297511 -5.302368 4.271679 -71.859901 17.933054 -20.913637 -40.888363 7.590813 29.685703 -13.256603 18.426111 -5.495322 1.025454 3.053526 4.272121 66.265099 -0.336891 15.787500 58.788536 2.828674 16.531382 4.315407 -11.135571 -3.907082 1.393267 4.962360 5.342392 20.881824 -1.844897 29.323835 -16.618509 1.345042 -9.135294 -18.348227 -7.743544 -3.368146 16.707512 3.495290 -14.756331 2.195911 -0.060111 -1.359101 
-18.302910 49.889191 -18.710526 -3.566268 -1.591056 19.656275 0.000000 0.000000 0.000000 3.852438 -0.898320 -0.927927 4.441347 -3.211230 -7.932570 -12.313625 11.162209 -11.786882 -1.416151 -5.534485 4.089346 -71.600258 10.744184 -20.020260 -41.493736 7.313606 28.790443 -12.269348 16.880152 -5.152754 1.326237 3.118840 4.047403 65.940056 -1.550905 14.348890 62.412090 1.900195 14.406697 2.017144 -10.588698 -3.751372 1.755036 4.914794 5.427717 20.815281 -2.031730 29.128977 -16.898201 1.438328 -9.586635 -17.953045 -8.063872 -2.575703 14.907156 2.930309 -12.337234 2.547259 -0.043931 -1.061627 
-18.462370 49.799427 -18.164223 -3.286615 -1.085700 19.583637 0.000000 0.000000 0.000000 3.792080 -0.937413 -0.781465 4.577351 -3.567989 -8.062777 -13.186849 11.130901 -12.324608 -0.980580 -5.639847 4.061887 -71.275124 4.090556 -17.225056 -43.634079 6.329936 27.784044 -11.221670 15.469442 -4.872480 1.510900 2.748914 4.006629 65.976028 -2.269830 12.698563 66.286812 0.795969 12.907378 0.552857 -9.270829 -3.607509 2.401079 4.763676 5.407536 20.668291 -2.060807 28.986042 -17.146025 1.536590 -10.244987 -17.736702 -8.199620 -1.957926 14.421111 2.039984 -11.357606 2.842900 -0.038811 -0.862087 
-18.675188 49.728725 -17.506416 -2.789974 -0.681237 19.493542 0.000000 0.000000 0.000000 3.518484 -0.937415 -0.771701 4.876061 -3.819477 -8.055569 -14.145571 10.338605 -12.301508 -0.977679 -5.760828 3.807366 -70.510483 -1.514235 -12.375079 -47.337646 4.856082 26.612329 -8.967089 14.195244 -4.499260 1.744827 2.042618 3.760028 66.320320 -2.619238 10.953253 70.278114 -0.410802 14.422135 0.504024 -7.903976 -3.590705 3.152551 4.763486 5.485593 20.066616 -2.121867 28.914459 -17.204216 1.696904 -10.953651 -17.718557 -8.161481 -1.668851 14.588666 1.594124 -11.827929 3.720633 -0.074417 -0.603270 
-18.983360 49.611320 -16.786686 -2.036017 -0.661210 19.884136 0.000000 0.000000 0.000000 3.054598 -0.771286 -1.298973 5.116653 -3.721335 -8.210825 -14.982633 9.166852 -11.624765 -1.796981 -5.055033 3.360474 -70.254997 -6.509025 -6.809247 -51.508801 3.671069 26.084839 -6.231356 12.646544 -4.144248 1.575427 1.500567 3.339414 66.508263 -2.160758 10.037078 73.497566 -1.254628 14.896790 -2.078660 -6.276057 -3.494797 3.424381 5.289122 5.676811 19.964304 -2.147863 27.254795 -17.761312 1.831026 -11.555756 -17.304018 -8.075945 -2.009320 13.505446 2.021450 -13.442108 4.442862 -0.039178 -0.085199 
-19.290636 49.520401 -15.893048 -2.131667 -0.658352 20.558027 0.000000 0.000000 0.000000 3.207028 -0.361069 -2.168049 5.531102 -3.671365 -8.386860 -15.216973 8.545864 -10.923212 -2.875761 -3.854331 3.499190 -70.287155 -11.281658 -1.350831 -55.548023 3.004134 26.689737 -3.811205 9.366603 -3.785973 0.969026 0.958961 3.476366 66.567795 -0.646380 9.780806 75.341179 -1.726074 14.630848 -5.052032 -4.532472 -3.481527 4.916333 6.117296 6.050166 19.214348 -1.953921 25.329102 -18.152281 1.958082 -12.203424 -15.679666 -7.937295 -3.249735 11.604863 3.071848 -17.068710 4.276935 -0.032706 -0.083118 
-19.685900 49.500626 -14.967117 -2.565484 -0.522320 20.225424 0.000000 0.000000 0.000000 3.784856 -0.126831 -2.509781 6.663831 -3.492300 -7.866633 -16.912527 8.227727 -10.251965 -3.474480 -2.799343 4.020389 -69.861389 -15.631083 3.799916 -59.267448 2.743289 27.512486 -2.462910 5.926652 -3.588153 -0.008933 1.389472 3.995096 65.172623 2.299950 10.591243 75.139702 -1.720352 13.134984 -7.488530 -2.697061 -3.543523 7.688026 6.801629 6.615240 16.916084 -1.717005 24.167791 -17.794584 1.999855 -12.824965 -15.907146 -6.943027 -3.344563 13.090156 2.964905 -21.107504 4.580849 -0.043594 -0.765617 
-20.277754 49.530251 -14.245384 -2.182050 -1.500134 20.505276 0.000000 0.000000 0.000000 4.139827 0.526484 -3.271615 7.648479 -2.371830 -7.555660 -19.289953 7.371465 -8.931473 -4.571612 -1.317398 4.342234 -69.786209 -19.906208 7.181579 -62.066864 2.861710 28.442011 -2.706197 3.057368 -3.482689 -1.914074 2.911096 4.320111 62.872398 6.734345 12.244730 72.529655 -1.118685 10.240640 -9.893556 -0.912226 -3.687211 8.863160 8.630879 7.654747 14.839003 -1.692037 20.908741 -17.580496 2.011657 -12.889989 -17.488316 -4.804195 -2.215118 15.306348 2.339530 -23.750748 4.294804 -0.073538 -1.394412 
-20.875288 49.627865 -13.740095 -1.424135 -2.898977 21.493303 0.000000 0.000000 0.000000 4.881416 1.499225 -4.522999 8.227790 -0.977445 -7.696518 -20.618595 7.009045 -7.585908 -6.614379 0.397003 5.103175 -69.670624 -23.773050 8.732739 -64.297058 3.008129 27.606094 -3.814028 1.654993 -3.406713 -2.955129 3.858791 5.005792 61.318916 11.476892 12.624174 68.034225 0.056477 8.550128 -11.017138 -0.488969 -3.735242 8.062983 10.534004 8.648211 13.897624 -1.433149 20.257160 -16.540281 2.006043 -13.637856 -17.054741 -3.133887 -1.712377 13.293277 2.757456 -25.450050 3.351869 -0.088660 -1.921026 
-21.475527 49.716251 -13.478054 -0.540988 -4.450574 23.022314 0.000000 0.000000 0.000000 5.862450 2.653258 -5.611193 9.367639 0.454221 -8.261922 -22.050560 8.100842 -7.712809 -9.179269 2.134023 6.168814 -70.103958 -27.708508 8.652296 -65.361542 3.116429 26.899401 -5.532537 1.461090 -3.377561 -3.060551 5.201890 5.907065 59.018940 15.291739 11.169208 63.510643 1.152780 9.525746 -9.498532 -2.612595 -3.570945 5.886494 12.116503 8.783951 14.127951 -0.420398 20.740570 -15.454658 2.017277 -14.863712 -16.119146 -2.050830 -1.404716 9.430051 3.591193 -27.513191 3.744147 -0.046384 -1.841900 
-21.977839 49.816105 -13.261396 -0.024683 -5.253919 24.307428 0.000000 0.000000 0.000000 7.172341 3.480725 -5.380722 11.415760 1.718134 -8.734419 -22.466940 9.440105 -9.186998 -10.681224 4.435210 7.609679 -73.558846 -32.952984 8.588765 -64.073044 3.213805 27.770412 -8.000034 2.765544 -3.440664 -2.276958 5.750757 7.074044 57.429939 16.787487 8.432315 61.014004 1.633702 11.413987 -6.851713 -6.849930 -3.353085 5.380342 12.627501 8.615149 12.585876 0.478702 20.341206 -14.319090 1.939511 -15.293432 -15.331545 -1.562978 -1.416433 6.785128 4.233210 -28.558113 4.321169 -0.077119 -1.694089 
-22.407454 49.929073 -13.082971 0.426158 -4.851534 24.340580 0.000000 0.000000 0.000000 8.496424 3.322526 -3.863380 14.655122 2.491610 -8.543159 -20.488503 10.353765 -10.534739 -10.049442 6.183145 8.896667 -78.413536 -39.033173 11.264379 -60.223709 2.970132 29.440428 -9.842327 5.636974 -3.724322 -1.124883 3.862790 8.289933 57.865425 17.160595 6.864849 59.485291 1.829443 13.590075 -4.790275 -10.618472 -3.300481 3.405475 11.967243 8.254740 14.382661 1.239402 24.459593 -12.129872 1.778986 -16.502213 -14.194871 -1.767490 -1.649748 4.237229 4.762030 -28.690346 4.358715 -0.092065 -1.688576 
-22.685205 50.003387 -12.828100 0.332321 -3.785304 23.324745 0.000000 0.000000 0.000000 9.648119 2.663840 -2.316943 19.631584 2.534711 -7.839436 -16.184336 12.053322 -11.776340 -7.655314 5.977269 9.763978 -82.145309 -43.315182 15.439425 -56.935600 2.802888 34.379684 -13.479920 8.283152 -4.168005 1.022081 1.552906 9.307731 58.793545 16.504528 6.836396 59.079372 2.254256 11.677460 -5.772933 -11.002030 -3.245296 -0.371694 11.327992 7.911189 21.499926 1.326788 28.555243 -9.836672 1.627857 -18.753511 -13.934330 -1.992469 -1.787820 4.910885 4.757204 -27.640190 4.087418 -0.090087 -1.576274 
-22.820724 49.982494 -12.401182 -0.527770 -2.791345 22.792212 0.000000 0.000000 0.000000 10.883249 2.274490 -1.612384 23.653521 1.646353 -7.395401 -8.263406 14.909777 -12.821024 -4.835358 5.179178 10.723627 -84.653786 -44.470520 19.248501 -57.511642 3.169596 41.399860 -18.804745 8.266193 -4.358118 1.383514 0.682381 10.456148 59.494354 16.775393 7.973525 59.786034 2.524843 8.374225 -7.938536 -8.807967 -3.207144 -2.968709 11.492346 8.151766 29.052965 0.886122 24.952215 -9.276029 1.589216 -19.238445 -13.922015 -2.069897 -2.162633 7.811644 4.588818 -26.984182 3.241136 -0.059214 -1.560258 
-22.964386 49.934132 -11.964760 -0.935501 -2.268172 22.840864 0.000000 0.000000 0.000000 11.704158 2.088882 -1.739262 24.497763 0.774583 -7.490867 -1.922970 14.833905 -12.288418 -2.766256 3.968393 11.329413 -84.413963 -41.932476 20.442738 -61.900070 3.661651 44.645790 -21.350098 5.937140 -4.010166 -0.678077 1.856524 11.255689 58.605194 18.514771 9.839518 61.365047 2.239691 8.784630 -7.278802 -7.182905 -3.318771 -4.998574 11.986143 8.872383 34.464935 0.366043 20.689810 -8.716724 1.473109 -18.931067 -14.145656 -2.157760 -2.656390 10.035245 4.730794 -27.086327 2.457487 -0.055540 -1.625534 
-23.057640 49.931087 -11.608863 -0.483711 -1.898076 22.258787 0.000000 0.000000 0.000000 11.419280 1.942572 -1.631577 23.440102 -0.251895 -7.216897 -2.399708 12.471381 -11.634136 -2.180923 0.568316 11.067691 -80.100639 -35.658546 18.060659 -66.548187 3.797302 39.275158 -18.625406 3.951955 -3.609367 -1.256319 4.103415 11.023911 56.492508 17.832142 10.902317 63.114643 1.832921 9.563128 -7.315101 -6.058479 -3.378392 -5.947053 12.020144 9.790697 36.829353 -0.406513 20.561064 -7.389679 1.274396 -19.326366 -15.319781 -2.216903 -2.586843 12.387518 4.468882 -26.256025 1.886477 -0.031902 -1.796790 
-23.101381 49.924835 -11.196513 -0.496675 -1.959972 21.702505 0.000000 0.000000 0.000000 10.581038 2.333366 -1.319254 21.317524 -1.106115 -6.505141 -5.004850 10.023067 -10.949550 -2.955410 -2.144874 10.293079 -76.144272 -27.228630 14.953145 -67.608200 3.211609 29.228832 -13.034831 1.462196 -3.263196 -1.438314 5.307576 10.288126 56.105320 15.804891 12.296206 63.360832 1.749523 10.536960 -7.428259 -5.554508 -3.387658 -5.272050 12.415933 10.731177 37.509747 -0.825508 19.834421 -7.156849 1.246883 -19.550161 -15.671157 -1.503960 -2.073076 13.700339 3.934226 -26.016045 1.279618 -0.060772 -2.071130 
-23.029613 49.926296 -10.738597 -0.665777 -1.934972 21.536272 0.000000 0.000000 0.000000 9.553253 2.450005 -1.768884 18.100199 -0.699340 -5.947774 -5.758026 5.434473 -8.053443 -3.840693 -2.456143 9.378016 -74.855209 -18.586977 12.159553 -64.616302 2.135979 22.704185 -10.348204 -0.162162 -3.117270 -1.586678 5.618383 9.350899 56.876137 14.075580 14.382318 62.402588 2.254906 10.213703 -6.180545 -7.217441 -3.376292 -3.749864 12.449505 10.986294 37.532772 -1.100414 17.216963 -7.779542 1.279083 -18.842871 -15.280916 -1.142565 -1.851766 14.274296 3.581274 -25.915953 0.683144 -0.030009 -2.220385 
